<?xml version="1.0" standalone="no"?><svg xmlns="http://www.w3.org/2000/svg" viewBox="0 0 1440 320"><path fill="#f3f4f5" fill-opacity="1" d="M0,128L26.7,122.7C53.3,117,107,107,160,112C213.3,117,267,139,320,133.3C373.3,128,427,96,480,106.7C533.3,117,587,171,640,197.3C693.3,224,747,224,800,202.7C853.3,181,907,139,960,138.7C1013.3,139,1067,181,1120,202.7C1173.3,224,1227,224,1280,192C1333.3,160,1387,96,1413,64L1440,32L1440,320L1413.3,320C1386.7,320,1333,320,1280,320C1226.7,320,1173,320,1120,320C1066.7,320,1013,320,960,320C906.7,320,853,320,800,320C746.7,320,693,320,640,320C586.7,320,533,320,480,320C426.7,320,373,320,320,320C266.7,320,213,320,160,320C106.7,320,53,320,27,320L0,320Z"></path></svg>