<svg width="242" height="87" viewBox="0 0 242 87" fill="none" xmlns="http://www.w3.org/2000/svg">
<path d="M29.7 86.5C27.45 86.25 24.3 85.8 22.7 85.5C21.1 85.15 18.65 84.7 17.25 84.4C12.4 83.45 -6.20745e-06 78.8 -6.20745e-06 77.95C-6.20745e-06 77.35 -0.100003 77.3 3.8 78.9C13.95 83.1 24.5 85.4499 33.55 85.5999C37.95 85.6999 39.15 85.4999 41.2 84.5999C44.9 82.8999 47.4 80.65 51.25 75.3C60.05 63.15 62.95 60.15 68.4 57.65C73.2 55.4 85.6 55.6 91.95 58C93.4 58.6 97.7 60.6 101.45 62.55C109.35 66.55 112.55 67.4999 118.75 67.5999C127.95 67.6999 131.25 64.6499 139.05 48.8499C143.7 39.4499 146.55 35.5 150.45 33.15C156.35 29.6 165.85 30.45 177.85 35.55C185.65 38.9 189.7 40 195.9 40.5C207.8 41.45 215.25 38.8 222.8 30.9C224.5 29.15 226.65 26.5 227.6 25C229.85 21.5 233.8 13.65 234.75 10.8C235.5 8.59996 235.5 8.54996 234.25 7.29996C231.05 4.09996 234.65 -1.00003 238.85 0.74997C241.7 1.94997 242.35 4.94998 240.25 7.19998C239.6 7.89998 238.7 8.54996 238.25 8.54996C237.85 8.59996 237.25 8.64998 236.9 8.69998C236.55 8.69998 236 9.74998 235.65 10.95C234.7 14.25 230.9 21.8 228.1 26.05C225.25 30.3 219.8 35.7 216.45 37.65C210.7 41 203.15 42.4 195.7 41.55C188.8 40.75 185.15 39.75 177.5 36.5C169.55 33.15 163.25 31.7499 157.85 32.0999C150.1 32.5999 146.7 35.8 139.95 49.25C137.4 54.2 134.7 59.2 133.9 60.4C129.25 67.15 124.2 69.5 116.25 68.5C110.35 67.75 106.5 66.45 100.55 63.2C97.75 61.7 93.6 59.6999 91.35 58.8499C87.4 57.3499 86.95 57.3 79.25 57.3L71.25 57.25L68 58.95C64.1 61 59.8 65.2 55.5 71.25C50.6 78.15 47.65 81.55 44.8 83.55C40.65 86.5 36.9 87.25 29.7 86.5ZM239.65 6.59995C240.75 5.64995 240.75 3.59999 239.65 2.39999C238.5 1.09999 235.75 1.19995 234.8 2.59995C233.7 4.19995 233.8 5.34996 235.25 6.79996C236.6 8.14996 237.95 8.09995 239.65 6.59995Z" fill="#FF0000"/>
</svg>
