<svg width="115" height="49" viewBox="0 0 115 49" fill="none" xmlns="http://www.w3.org/2000/svg">
<path d="M43.75 48.25C29.9 46.05 18.45 40.5 8.74998 31.3C6.69998 29.4 4.79999 28 4.19999 28C3.59999 28 2.54996 27.55 1.79996 26.95C-0.750037 24.95 0.699975 20.85 3.99998 20.85C6.74998 20.85 8.29999 23.6 6.94999 26.15C6.39999 27.1 6.74995 27.55 10.1 30.8C17.6 37.95 26.15 42.55 38 45.8C42.9 47.15 43.85 47.25 52.5 47.25C60.5 47.25 62.4 47.05 66.5 46.05C75.35 43.85 80.9 41.45 88.05 36.7C98.4 29.8 108.15 17.65 112.05 6.70001C112.65 5.10001 113.45 2.95 113.85 2L114.55 0.25L114.2 2.25C114.05 3.35 113.75 4.5 113.5 4.75C113.3 5.05 112.75 6.5 112.3 8C111.2 11.9 106.35 20.25 102.3 25.3C93.1 36.8 78.9 45.15 64 47.8C57.95 48.85 48.85 49.05 43.75 48.25Z" fill="#3326AE"/>
</svg>
